# xmcd
#
# Track frame offsets:
# 150
# 14433
# 34201
# 52393
# 70891
# 88819
#
# Disc length: 1488 seconds
#
#
# Revision: 0
# Processed by: cddbd v1.5.2PL0 Copyright (c) Steve Scherf et al.
# Submitted via: FreeRIP 2.943 
#
DISCID=5405ce06
DTITLE=Les Stroud and the Pikes - Long Walk Home
DYEAR=2007
DGENRE=
TTITLE0=Steady Job
TTITLE1=Nice Tatoo
TTITLE2=We Crawl
TTITLE3=Three Cheers
TTITLE4=Storm Winds
TTITLE5=Long Walk Home
EXTD=
EXTT0=
EXTT1=
EXTT2=
EXTT3=
EXTT4=
EXTT5=
PLAYORDER=
